HIERARCHY
ROOT SpineBase
{
  OFFSET 0.000000 0.000000 0.000000
  CHANNELS 6 Xposition Yposition Zposition Zrotation Xrotation Yrotation
  JOINT SpineMid
  {
    OFFSET 0.000000 17.941891 0.000000
    CHANNELS 3 Zrotation Xrotation Yrotation
    JOINT SpineShoulder
    {
      OFFSET -0.143355 12.999166 -0.501381
      CHANNELS 3 Zrotation Xrotation Yrotation
      JOINT Neck
      {
        OFFSET -0.094060 4.144109 -0.363629
        CHANNELS 3 Zrotation Xrotation Yrotation
        JOINT Head
        {
          OFFSET -1.669729 8.401715 -5.717448
          CHANNELS 3 Zrotation Xrotation Yrotation
          End Site
          {
            OFFSET 0 0 0
          }
        }
      }
      JOINT ShoulderLeft
      {
        OFFSET -9.225807 8.640953 3.127829
        CHANNELS 3 Zrotation Xrotation Yrotation
        JOINT ElbowLeft
        {
          OFFSET -6.416485 -25.178050 -7.809294
          CHANNELS 3 Zrotation Xrotation Yrotation
          JOINT WristLeft
          {
            OFFSET 1.107366 -25.756040 -6.690951
            CHANNELS 3 Zrotation Xrotation Yrotation
            JOINT HandLeft
            {
              OFFSET 0.375016 -8.139454 -3.463005
              CHANNELS 3 Zrotation Xrotation Yrotation
              JOINT HandTipLeft
              {
                OFFSET 1.720897 -3.617191 1.507325
                CHANNELS 3 Zrotation Xrotation Yrotation
                End Site
                {
                  OFFSET 0 0 0
                }
              }
              JOINT ThumbLeft
              {
                OFFSET 3.937439 -0.476784 -1.931177
                CHANNELS 3 Zrotation Xrotation Yrotation
                End Site
                {
                  OFFSET 0 0 0
                }
              }
            }
          }
        }
      }
      JOINT ShoulderRight
      {
        OFFSET 8.076741 -2.926322 -6.250615
        CHANNELS 3 Zrotation Xrotation Yrotation
        JOINT ElbowRight
        {
          OFFSET -1.618460 -2.966804 -24.138684
          CHANNELS 3 Zrotation Xrotation Yrotation
          JOINT WristRight
          {
            OFFSET -12.290092 13.987439 1.615248
            CHANNELS 3 Zrotation Xrotation Yrotation
            JOINT HandRight
            {
              OFFSET 1.704398 1.471459 5.387086
              CHANNELS 3 Zrotation Xrotation Yrotation
              JOINT HandTipRight
              {
                OFFSET -0.409008 0.642822 2.268376
                CHANNELS 3 Zrotation Xrotation Yrotation
                End Site
                {
                  OFFSET 0 0 0
                }
              }
              JOINT ThumbRight
              {
                OFFSET -0.095958 -1.703572 1.061236
                CHANNELS 3 Zrotation Xrotation Yrotation
                End Site
                {
                  OFFSET 0 0 0
                }
              }
            }
          }
        }
      }
    }
  }
  JOINT HipLeft
  {
    OFFSET -6.800159 -1.588678 0.875689
    CHANNELS 3 Zrotation Xrotation Yrotation
    JOINT KneeLeft
    {
      OFFSET -27.722571 2.870583 -21.484297
      CHANNELS 3 Zrotation Xrotation Yrotation
      JOINT AnkleLeft
      {
        OFFSET 25.206877 -19.372092 40.273193
        CHANNELS 3 Zrotation Xrotation Yrotation
        JOINT FootLeft
        {
          OFFSET 7.002207 -4.410464 -2.039722
          CHANNELS 3 Zrotation Xrotation Yrotation
          End Site
          {
            OFFSET 0 0 0
          }
        }
      }
    }
  }
  JOINT HipRight
  {
    OFFSET 5.717333 -1.178719 -7.892953
    CHANNELS 3 Zrotation Xrotation Yrotation
    JOINT KneeRight
    {
      OFFSET -6.353124 -12.948987 -33.274771
      CHANNELS 3 Zrotation Xrotation Yrotation
      JOINT AnkleRight
      {
        OFFSET 3.371702 -19.232928 28.783112
        CHANNELS 3 Zrotation Xrotation Yrotation
        JOINT FootRight
        {
          OFFSET 3.714058 0.180023 0.486430
          CHANNELS 3 Zrotation Xrotation Yrotation
          End Site
          {
            OFFSET 0 0 0
          }
        }
      }
    }
  }
}
MOTION
Frames: 6
Frame Time: 0.033333
72.524940 43.139454 285.308644 1.257917 -1.965753 35.398402 0.240198 1.057228 -35.361084 -0.840876 0.965113 -0.014713 1.195741 6.842865 2.188026 0.000000 0.000000 0.000000 0.275303 0.808863 -0.293007 6.964746 4.050440 -1.572299 -13.460325 -6.826019 3.330198 -18.171604 8.899268 -8.748866 0.000000 0.000000 0.000000 0.000000 0.000000 0.000000 0.206695 -2.600463 -0.317041 1.086292 2.813694 0.296206 13.880278 -42.818685 -3.162316 -21.812544 45.792936 12.541302 0.000000 0.000000 0.000000 0.000000 0.000000 0.000000 0.139890 -0.056743 -41.913717 -3.136526 2.908828 5.422804 128.667583 -45.517486 -20.769068 0.000000 0.000000 0.000000 1.479588 3.719211 -37.115665 -0.939792 -8.264801 -0.624391 -37.959943 0.072751 27.419231 0.000000 0.000000 0.000000
72.352358 43.228560 285.307938 0.843523 -1.915780 35.765165 0.436584 0.845148 -35.742488 -0.703494 0.975051 -0.010399 1.447163 7.296025 2.444092 0.000000 0.000000 0.000000 0.616072 0.550627 -0.334329 6.741716 4.425116 -1.602321 -13.359588 -6.461865 3.300405 -21.479485 8.327829 -10.361513 0.000000 0.000000 0.000000 0.000000 0.000000 0.000000 0.225958 -2.886487 -0.324689 -1.051207 4.450847 1.867150 12.848355 -38.385160 -3.179390 -15.742928 44.122622 7.244163 0.000000 0.000000 0.000000 0.000000 0.000000 0.000000 0.548874 -0.463938 -41.600821 -3.067111 2.955942 5.091578 128.685835 -45.793851 -20.477989 0.000000 0.000000 0.000000 2.016332 3.267542 -38.135914 -0.303720 -4.335368 2.027030 -38.865338 -1.773099 23.388890 0.000000 0.000000 0.000000
72.126011 43.348839 285.298154 0.311871 -1.878176 35.600192 0.656365 0.629104 -35.596234 -0.479201 0.984626 -0.003508 1.620275 6.252228 2.337980 0.000000 0.000000 0.000000 0.941008 0.691941 -0.473996 5.251041 3.607774 -1.110823 -11.782438 -5.529895 3.066278 -23.057893 9.188628 -9.919247 0.000000 0.000000 0.000000 0.000000 0.000000 0.000000 0.236306 -3.120331 -0.274778 -1.081335 5.283637 2.357094 12.611320 -40.911560 -8.567790 -21.896905 46.175768 16.007355 0.000000 0.000000 0.000000 0.000000 0.000000 0.000000 0.978359 -0.932034 -41.574122 -3.231538 3.014825 5.076894 128.629845 -45.674886 -20.629990 0.000000 0.000000 0.000000 2.618593 2.717333 -38.673840 -0.101378 -1.857131 3.991734 -39.466141 -2.823665 20.842188 0.000000 0.000000 0.000000
71.935630 43.393083 285.255176 -0.120781 -1.787556 35.622937 0.792401 0.445187 -35.633483 -0.264066 0.964107 0.002670 1.836391 4.240345 2.070236 0.000000 0.000000 0.000000 1.295877 1.215552 -0.725180 2.578285 1.569826 -0.200310 -8.374236 -4.304990 2.386262 -21.384434 10.729055 -6.885800 0.000000 0.000000 0.000000 0.000000 0.000000 0.000000 0.221173 -3.149436 -0.096631 -0.805773 3.886131 0.862423 13.903978 -49.989624 -19.953482 -44.777071 49.172783 42.667135 0.000000 0.000000 0.000000 0.000000 0.000000 0.000000 1.127245 -0.971228 -42.367912 -3.038387 2.164321 4.596493 127.410061 -45.059501 -22.501062 0.000000 0.000000 0.000000 2.989679 2.276011 -38.984842 -0.565486 2.542936 4.975667 -39.614319 -5.769606 17.565517 0.000000 0.000000 0.000000
71.754020 43.394152 285.168396 -0.515497 -1.631171 35.321414 0.860562 0.288564 -35.344377 -0.019999 0.898112 0.009293 1.806149 1.315553 1.476756 0.000000 0.000000 0.000000 1.537752 1.938076 -0.995107 0.275721 -0.503072 0.575929 -3.869515 -3.729726 1.079823 -22.487063 10.693990 -5.154355 0.000000 0.000000 0.000000 0.000000 0.000000 0.000000 0.192759 -3.076923 0.148321 -0.813722 2.588957 -0.466966 11.330023 -56.156810 -34.803953 -64.447118 44.091016 66.915869 0.000000 0.000000 0.000000 0.000000 0.000000 0.000000 1.440197 -1.962966 -42.776275 -3.172537 1.509863 4.459594 125.691630 -45.015624 -24.447318 0.000000 0.000000 0.000000 3.204850 2.087400 -38.500733 -0.183671 5.611028 6.216103 -40.420329 -7.281004 14.493438 0.000000 0.000000 0.000000
71.701065 43.366120 285.125590 -0.590536 -1.554697 32.982215 0.790645 0.306090 -33.008719 0.093707 0.867494 0.012475 1.434722 -0.338593 0.909232 0.000000 0.000000 0.000000 1.593883 2.113279 -1.060076 -1.555609 -2.141604 1.001599 -2.076179 -1.792504 0.774136 -22.594407 11.237587 -4.647549 0.000000 0.000000 0.000000 0.000000 0.000000 0.000000 0.160152 -2.887493 0.348187 -1.484190 1.833428 -1.073468 8.540848 -58.933516 -45.102919 -66.786191 38.841200 69.355752 0.000000 0.000000 0.000000 0.000000 0.000000 0.000000 1.666795 -1.949385 -39.152499 -2.892291 0.694955 2.654259 124.449315 -44.977811 -25.779112 0.000000 0.000000 0.000000 3.274396 2.477653 -36.111526 0.712207 9.355600 8.881908 -42.381831 -8.401922 9.690827 0.000000 0.000000 0.000000
